<?xml version="1.0" encoding="utf-8"?>
<!-- Generator: Adobe Illustrator 19.0.0, SVG Export Plug-In . SVG Version: 6.00 Build 0)  -->
<svg version="1.1" id="Layer_1" xmlns="http://www.w3.org/2000/svg" xmlns:xlink="http://www.w3.org/1999/xlink" x="0px" y="0px"
	 viewBox="0 0 30 30" enable-background="new 0 0 30 30" xml:space="preserve">
<path id="XMLID_39_" fill="#B51E2E" d="M15,2C7.8,2,2,7.8,2,15s5.8,13,13,13s13-5.8,13-13S22.2,2,15,2z M15,26C8.9,26,4,21.1,4,15
	C4,8.9,8.9,4,15,4s11,4.9,11,11C26,21.1,21.1,26,15,26z"/>
<rect id="XMLID_9_" x="14" y="10" width="2" height="10"/>
<rect id="XMLID_11_" x="10" y="14" width="10" height="2"/>
<g id="XMLID_13_">
	<rect id="XMLID_12_" x="14" y="3" fill="#B51E2E" width="2" height="4"/>
	<rect id="XMLID_31_" x="14" y="23" fill="#B51E2E" width="2" height="4"/>
</g>
<g id="XMLID_32_">
	<rect id="XMLID_34_" x="3" y="14" fill="#B51E2E" width="4" height="2"/>
	<rect id="XMLID_33_" x="23" y="14" fill="#B51E2E" width="4" height="2"/>
</g>
</svg>
